<svg width="81" height="81" viewBox="0 0 81 81" fill="none" xmlns="http://www.w3.org/2000/svg">
<g clip-path="url(#clip0_5480_2852)">
<path fill-rule="evenodd" clip-rule="evenodd" d="M45.2291 8.09967C43.5364 7.85176 41.81 8.19453 40.3405 9.07029C38.8709 9.94606 37.748 11.3013 37.1605 12.908C36.5731 14.5147 36.5572 16.2747 37.1153 17.8918C37.6735 19.5089 38.7717 20.8844 40.2251 21.7867L39.3828 27.5635C32.169 26.5598 26.8033 25.9927 23.1017 25.6711C18.2766 25.2549 13.8836 28.2517 12.766 33.0692C12.0281 36.2529 11.1416 40.7131 10.2794 46.6268C9.41701 52.5421 8.99328 57.0682 8.79296 60.3303C8.48698 65.2662 11.8415 69.3925 16.5845 70.3713C20.7028 71.2199 26.9546 72.3736 35.6728 73.6447C44.3911 74.9158 50.7121 75.5952 54.9013 75.9563C59.7262 76.3739 64.1192 73.3771 65.237 68.5581C65.9747 65.3759 66.861 60.9172 67.7234 55.002C68.5858 49.0867 69.0095 44.5606 69.2096 41.3C69.5158 36.3626 66.1613 32.2363 61.418 31.259C57.7789 30.5088 52.4749 29.5189 45.2743 28.4239L46.1168 22.6456C47.766 22.1945 49.2097 21.1894 50.2052 19.7993C51.2006 18.4091 51.6871 16.7186 51.583 15.012C51.4788 13.3053 50.7903 11.6866 49.6332 10.4278C48.4761 9.16895 46.9209 8.34686 45.2291 8.09967ZM32.7105 42.3761C32.8244 41.5948 32.6233 40.8002 32.1514 40.1672C31.6795 39.5342 30.9755 39.1146 30.1942 39.0007C29.4129 38.8868 28.6184 39.0879 27.9854 39.5598C27.3524 40.0318 26.9327 40.7358 26.8188 41.5171L26.6041 42.99C26.4902 43.7713 26.6913 44.5658 27.1632 45.1988C27.6351 45.8318 28.3392 46.2514 29.1204 46.3653C29.9017 46.4792 30.6963 46.2781 31.3293 45.8062C31.9623 45.3343 32.3819 44.6303 32.4958 43.849L32.7105 42.3761ZM50.8151 42.0072C50.0338 41.8933 49.2393 42.0944 48.6063 42.5663C47.9733 43.0382 47.5537 43.7422 47.4397 44.5235L47.225 45.9964C47.1111 46.7777 47.3122 47.5723 47.7841 48.2053C48.256 48.8383 48.9601 49.2579 49.7413 49.3718C50.5226 49.4857 51.3172 49.2846 51.9502 48.8127C52.5832 48.3408 53.0028 47.6367 53.1167 46.8554L53.3314 45.3825C53.4453 44.6012 53.2442 43.8067 52.7723 43.1737C52.3004 42.5407 51.5964 42.1211 50.8151 42.0072ZM27.3817 54.4528C29 53.3199 30.5322 54.1495 31.6995 55.3666C31.8953 55.5712 32.2354 55.89 32.7375 56.243C33.7291 56.9426 35.3942 57.8096 37.9277 58.179C40.4611 58.5484 42.3045 58.1929 43.4545 57.8055C43.886 57.6646 44.3029 57.4826 44.6995 57.262C46.1658 56.4288 47.8713 56.0697 49.0987 57.6175C50.1541 58.9522 49.83 60.9071 48.4936 61.8916L48.292 62.0367C48.1285 62.1467 47.9098 62.2848 47.6391 62.4394C46.9113 62.848 46.1463 63.1863 45.3543 63.4496C43.385 64.1116 40.5963 64.585 37.0687 64.0707C33.541 63.5564 31.0036 62.3065 29.3053 61.1097C28.6215 60.6312 27.9849 60.0886 27.4041 59.4892C27.2267 59.3054 27.0568 59.1146 26.8948 58.9171C25.8078 57.5823 25.8571 55.5211 27.3817 54.4528Z" fill="#4A66E8"/>
</g>
<defs>
<clipPath id="clip0_5480_2852">
<rect width="71.4477" height="71.4477" fill="white" transform="translate(10.3079) rotate(8.29507)"/>
</clipPath>
</defs>
</svg>
