<svg width="82" height="82" viewBox="0 0 82 82" fill="none" xmlns="http://www.w3.org/2000/svg">
<g clip-path="url(#clip0_5480_2828)">
<path fill-rule="evenodd" clip-rule="evenodd" d="M35.3038 75.6774C39.2408 74.0004 45.4969 71.1278 54.2411 66.5138C62.9852 61.8999 68.8876 58.357 72.4942 56.0535C75.967 53.8355 77.2909 49.5536 75.6761 45.7625C73.9991 41.8255 71.1265 35.5694 66.5125 26.8251C61.8985 18.0809 58.3556 12.1786 56.0522 8.57209C53.8341 5.09915 49.5523 3.77526 45.7611 5.39013C41.8241 7.06715 35.5681 9.93972 26.8238 14.5537C18.0797 19.1676 12.1773 22.7106 8.57078 25.014C5.09783 27.2321 3.77392 31.5139 5.38885 35.3051C7.06584 39.2421 9.93841 45.4982 14.5524 54.2424C19.1663 62.9865 22.7093 68.8889 25.0127 72.4955C27.2307 75.9684 31.5126 77.2923 35.3038 75.6774ZM17.7326 33.4842C16.766 31.6525 17.4674 29.3841 19.2991 28.4176C35.7845 19.7189 56.2002 26.0313 64.8989 42.5167C65.8655 44.3484 65.1641 46.6168 63.3323 47.5833C61.5006 48.5499 59.2322 47.8485 58.2657 46.0168C51.5001 33.1948 35.6212 28.2851 22.7992 35.0508C20.9674 36.0173 18.6991 35.316 17.7326 33.4842ZM24.7327 46.7506C23.7662 44.9189 24.4675 42.6505 26.2993 41.684C35.4579 36.8514 46.7999 40.3582 51.6325 49.5168C52.599 51.3486 51.8977 53.6169 50.0659 54.5835C48.2342 55.55 45.9658 54.8487 44.9993 53.0169C42.0997 47.5217 35.2945 45.4176 29.7994 48.3172C27.9676 49.2838 25.6993 48.5824 24.7327 46.7506ZM30.6273 60.6004C29.3387 58.1582 30.2738 55.1335 32.7161 53.8449C35.1583 52.5562 38.1829 53.4914 39.4716 55.9336C40.7603 58.3759 39.8251 61.4005 37.3829 62.6892C34.9406 63.9778 31.916 63.0426 30.6273 60.6004Z" fill="#FE6500"/>
</g>
<defs>
<clipPath id="clip0_5480_2828">
<rect width="60" height="60" fill="white" transform="translate(0 28.0006) rotate(-27.8188)"/>
</clipPath>
</defs>
</svg>
