<svg width="28" height="28" viewBox="0 0 28 28" fill="none" xmlns="http://www.w3.org/2000/svg">
<g clip-path="url(#clip0_5480_2838)">
<path fill-rule="evenodd" clip-rule="evenodd" d="M19.1537 6.57908C19.4934 6.72238 20.0608 7.07118 20.746 7.90511C21.4312 8.73904 21.6634 9.36326 21.7386 9.72495C21.7959 9.99905 21.7282 10.2425 21.6473 10.416C21.5324 10.6626 21.2683 11.2129 20.9478 11.7675C21.0708 12.2307 21.149 12.7047 21.1814 13.1829C21.6644 13.6047 22.0915 14.0414 22.2806 14.2377C22.4129 14.3757 22.5549 14.5843 22.5896 14.8628C22.6355 15.2291 22.6173 15.8948 22.2373 16.9051C21.8578 17.9159 21.4331 18.4286 21.1575 18.6744C20.9488 18.8611 20.7044 18.9245 20.5135 18.9412C20.0073 18.9858 19.4995 19.0092 18.9914 19.0112C18.6518 19.3486 18.2811 19.6532 17.8843 19.9209C17.7837 20.4189 17.6624 20.9126 17.5205 21.4005C17.467 21.5846 17.3578 21.8118 17.1339 21.9806C16.8393 22.2033 16.2537 22.5201 15.1889 22.6971C14.1237 22.8734 13.4671 22.7622 13.1166 22.6466C12.8503 22.5589 12.6735 22.3788 12.5635 22.222C12.2719 21.8061 11.9978 21.3781 11.7419 20.9392C11.2791 20.8146 10.8293 20.646 10.3987 20.4355C9.91767 20.5972 9.4301 20.7387 8.93725 20.8596C8.75128 20.9054 8.49967 20.9243 8.24158 20.8152C7.90165 20.671 7.33398 20.3224 6.64875 19.4885C5.96353 18.6546 5.73138 18.0304 5.65616 17.6687C5.59887 17.3946 5.66649 17.1511 5.74743 16.9776C5.86231 16.731 6.12647 16.1807 6.44694 15.6261C6.32397 15.1629 6.24573 14.6889 6.2133 14.2107C5.73029 13.7889 5.30294 13.3519 5.11387 13.1556C4.98161 13.0176 4.83956 12.809 4.80514 12.5308C4.75919 12.1645 4.7774 11.4988 5.15745 10.4886C5.53698 9.4777 5.96141 8.9647 6.23696 8.71887C6.44591 8.53248 6.69035 8.46913 6.881 8.45207C7.38717 8.40749 7.89499 8.38416 8.40311 8.38213C8.74265 8.04468 9.11333 7.74009 9.51022 7.47244C9.61075 6.97436 9.73211 6.4807 9.874 5.99278C9.9277 5.80906 10.0369 5.5818 10.2606 5.41271C10.5555 5.19037 11.1408 4.87317 12.2058 4.69655C13.2708 4.51992 13.9277 4.63147 14.2782 4.74701C14.5444 4.83472 14.7212 5.01479 14.8312 5.17161C14.9874 5.39489 15.3321 5.89877 15.6525 6.45415C16.1155 6.57878 16.5654 6.74755 16.9961 6.95814C17.4771 6.79642 17.9646 6.65491 18.4575 6.53398C18.6435 6.48823 18.8951 6.46936 19.1532 6.57845L19.1537 6.57908ZM15.7566 16.203C15.092 16.7491 14.2375 17.0089 13.3814 16.9251C12.5252 16.8413 11.7373 16.4208 11.1912 15.7561C10.645 15.0914 10.3853 14.237 10.4691 13.3808C10.5529 12.5246 10.9734 11.7368 11.6381 11.1906C12.3028 10.6445 13.1572 10.3847 14.0134 10.4686C14.8696 10.5524 15.6574 10.9729 16.2035 11.6375C16.7497 12.3022 17.0094 13.1566 16.9256 14.0128C16.8418 14.869 16.4213 15.6568 15.7566 16.203Z" fill="black"/>
</g>
<defs>
<clipPath id="clip0_5480_2838">
<rect width="19.4621" height="19.4621" fill="white" transform="translate(15.0371) rotate(50.5907)"/>
</clipPath>
</defs>
</svg>
