<svg width="74" height="74" viewBox="0 0 74 74" fill="none" xmlns="http://www.w3.org/2000/svg">
<g clip-path="url(#clip0_5480_2842)">
<path d="M11.8847 30.0817C9.24819 39.9215 12.6882 49.9571 19.9006 56.2087L16.7478 20.5415C14.5401 23.2636 12.8504 26.4778 11.8847 30.0817Z" fill="#21759B"/>
<path d="M53.861 39.9842C54.6842 36.9119 54.1507 34.4886 53.6479 32.579C52.9364 30.1936 52.2199 28.143 52.7686 26.0953C53.3809 23.8102 55.684 22.1474 58.1253 22.8016C58.2356 22.8311 58.3364 22.8728 58.4421 22.9078C55.105 17.6708 49.8754 13.618 43.4034 11.8839C34.7186 9.55677 25.8838 11.9652 19.6303 17.5232C20.2089 17.697 20.7553 17.8566 21.2221 17.9817C23.8224 18.6784 27.9319 19.4414 27.9319 19.4414C29.2932 19.7215 28.9238 21.732 27.5427 21.5318C27.5427 21.5318 26.1535 21.3294 24.6339 21.0064L26.4718 50.3586L36.2839 35.5006L35.2541 23.8511C33.9365 23.4138 32.7108 22.9156 32.7108 22.9156C31.3922 22.4781 32.098 20.472 33.4165 20.91C33.4165 20.91 37.4374 22.3255 39.8801 22.98C42.4798 23.6766 46.5899 24.4398 46.5899 24.4398C47.9521 24.7201 47.5822 26.7305 46.2006 26.5302C46.2006 26.5302 44.8086 26.327 43.2918 26.0048L45.1153 55.1346L49.8151 47.5132C51.8111 44.3628 53.2907 42.1123 53.861 39.9842Z" fill="#21759B"/>
<path d="M36.5972 39.0337L23.3312 58.7084C25.3828 59.9597 27.6421 60.9489 30.0824 61.6028C32.9774 62.3785 35.8877 62.6219 38.7153 62.4057C38.6771 62.2814 38.6469 62.1521 38.6302 62.0158L36.5972 39.0337Z" fill="#21759B"/>
<path d="M61.7517 30.6604C61.6464 31.4808 61.4792 32.3471 61.2342 33.2614C60.5583 35.784 59.3273 38.4935 56.9582 41.659L43.482 61.5785C52.0274 59.2491 59.1439 52.5744 61.6012 43.4035C62.7597 39.0817 62.7447 34.7217 61.7517 30.6604Z" fill="#21759B"/>
<path d="M44.5079 7.76483C28.5294 3.48341 12.0461 12.999 7.76476 28.9771C3.48295 44.957 13.0003 61.439 28.9787 65.7204C44.9567 70.0017 61.4418 60.487 65.7236 44.5071C70.0045 28.5289 60.4858 12.0461 44.5079 7.76483ZM29.3346 64.3921C14.0889 60.3071 5.00827 44.5794 9.0935 29.3331C13.1785 14.0877 28.9056 5.00832 44.1518 9.09353C59.3971 13.1785 68.477 28.9049 64.392 44.1503C60.3068 59.3966 44.5799 68.4771 29.3346 64.3921Z" fill="#21759B"/>
</g>
<defs>
<clipPath id="clip0_5480_2842">
<rect width="60" height="60" fill="white" transform="translate(15.5291) rotate(15)"/>
</clipPath>
</defs>
</svg>
