<svg width="160" height="16" viewBox="0 0 160 16" fill="none" xmlns="http://www.w3.org/2000/svg">
<path d="M144.369 4.53436C144.369 4.18498 144.498 3.88877 144.757 3.64572C145.015 3.38748 145.319 3.25836 145.668 3.25836C146.017 3.25836 146.321 3.38748 146.579 3.64572C146.838 3.88877 146.967 4.18498 146.967 4.53436C146.967 4.89893 146.838 5.21034 146.579 5.46858C146.321 5.71163 146.017 5.83315 145.668 5.83315C145.319 5.83315 145.015 5.71163 144.757 5.46858C144.498 5.21034 144.369 4.89893 144.369 4.53436ZM144.369 7.79272C144.369 7.44334 144.498 7.14713 144.757 6.90408C145.015 6.64584 145.319 6.51672 145.668 6.51672C146.017 6.51672 146.321 6.64584 146.579 6.90408C146.838 7.14713 146.967 7.44334 146.967 7.79272C146.967 8.1573 146.838 8.4687 146.579 8.72694C146.321 8.96999 146.017 9.09151 145.668 9.09151C145.319 9.09151 145.015 8.96999 144.757 8.72694C144.498 8.4687 144.369 8.1573 144.369 7.79272ZM144.369 11.0511C144.369 10.7017 144.498 10.4055 144.757 10.1624C145.015 9.9042 145.319 9.77508 145.668 9.77508C146.017 9.77508 146.321 9.9042 146.579 10.1624C146.838 10.4055 146.967 10.7017 146.967 11.0511C146.967 11.4157 146.838 11.7271 146.579 11.9853C146.321 12.2283 146.017 12.3499 145.668 12.3499C145.319 12.3499 145.015 12.2283 144.757 11.9853C144.498 11.7271 144.369 11.4157 144.369 11.0511ZM150.886 4.53436C150.886 4.18498 151.015 3.88877 151.273 3.64572C151.531 3.38748 151.835 3.25836 152.185 3.25836C152.534 3.25836 152.838 3.38748 153.096 3.64572C153.354 3.88877 153.483 4.18498 153.483 4.53436C153.483 4.89893 153.354 5.21034 153.096 5.46858C152.838 5.71163 152.534 5.83315 152.185 5.83315C151.835 5.83315 151.531 5.71163 151.273 5.46858C151.015 5.21034 150.886 4.89893 150.886 4.53436ZM150.886 14.3094C150.886 13.9601 151.015 13.6638 151.273 13.4208C151.531 13.1626 151.835 13.0334 152.185 13.0334C152.534 13.0334 152.838 13.1626 153.096 13.4208C153.354 13.6638 153.483 13.9601 153.483 14.3094C153.483 14.674 153.354 14.9854 153.096 15.2437C152.838 15.4867 152.534 15.6082 152.185 15.6082C151.835 15.6082 151.531 15.4867 151.273 15.2437C151.015 14.9854 150.886 14.674 150.886 14.3094ZM154.144 14.3094C154.144 13.9601 154.273 13.6638 154.531 13.4208C154.79 13.1626 155.094 13.0334 155.443 13.0334C155.792 13.0334 156.096 13.1626 156.354 13.4208C156.613 13.6638 156.742 13.9601 156.742 14.3094C156.742 14.674 156.613 14.9854 156.354 15.2437C156.096 15.4867 155.792 15.6082 155.443 15.6082C155.094 15.6082 154.79 15.4867 154.531 15.2437C154.273 14.9854 154.144 14.674 154.144 14.3094ZM157.402 11.0511C157.402 10.7017 157.532 10.4055 157.79 10.1624C158.048 9.9042 158.352 9.77508 158.701 9.77508C159.051 9.77508 159.354 9.9042 159.613 10.1624C159.871 10.4055 160 10.7017 160 11.0511C160 11.4157 159.871 11.7271 159.613 11.9853C159.354 12.2283 159.051 12.3499 158.701 12.3499C158.352 12.3499 158.048 12.2283 157.79 11.9853C157.532 11.7271 157.402 11.4157 157.402 11.0511ZM147.627 14.3094C147.627 13.9601 147.757 13.6638 148.015 13.4208C148.273 13.1626 148.577 13.0334 148.926 13.0334C149.276 13.0334 149.579 13.1626 149.838 13.4208C150.096 13.6638 150.225 13.9601 150.225 14.3094C150.225 14.674 150.096 14.9854 149.838 15.2437C149.579 15.4867 149.276 15.6082 148.926 15.6082C148.577 15.6082 148.273 15.4867 148.015 15.2437C147.757 14.9854 147.627 14.674 147.627 14.3094ZM147.627 4.53436C147.627 4.18498 147.757 3.88877 148.015 3.64572C148.273 3.38748 148.577 3.25836 148.926 3.25836C149.276 3.25836 149.579 3.38748 149.838 3.64572C150.096 3.88877 150.225 4.18498 150.225 4.53436C150.225 4.89893 150.096 5.21034 149.838 5.46858C149.579 5.71163 149.276 5.83315 148.926 5.83315C148.577 5.83315 148.273 5.71163 148.015 5.46858C147.757 5.21034 147.627 4.89893 147.627 4.53436ZM144.369 1.276C144.369 0.926621 144.498 0.630406 144.757 0.387358C145.015 0.129119 145.319 0 145.668 0C146.017 0 146.321 0.129119 146.579 0.387358C146.838 0.630406 146.967 0.926621 146.967 1.276C146.967 1.64057 146.838 1.95198 146.579 2.21022C146.321 2.45327 146.017 2.57479 145.668 2.57479C145.319 2.57479 145.015 2.45327 144.757 2.21022C144.498 1.95198 144.369 1.64057 144.369 1.276Z" fill="#4A66E8"/>
<path d="M126.321 4.53436C126.321 4.18498 126.45 3.88877 126.708 3.64572C126.966 3.38748 127.27 3.25836 127.62 3.25836C127.969 3.25836 128.273 3.38748 128.531 3.64572C128.789 3.88877 128.918 4.18498 128.918 4.53436C128.918 4.89893 128.789 5.21034 128.531 5.46858C128.273 5.71163 127.969 5.83315 127.62 5.83315C127.27 5.83315 126.966 5.71163 126.708 5.46858C126.45 5.21034 126.321 4.89893 126.321 4.53436ZM126.321 7.79272C126.321 7.44334 126.45 7.14713 126.708 6.90408C126.966 6.64584 127.27 6.51672 127.62 6.51672C127.969 6.51672 128.273 6.64584 128.531 6.90408C128.789 7.14713 128.918 7.44334 128.918 7.79272C128.918 8.1573 128.789 8.4687 128.531 8.72694C128.273 8.96999 127.969 9.09151 127.62 9.09151C127.27 9.09151 126.966 8.96999 126.708 8.72694C126.45 8.4687 126.321 8.1573 126.321 7.79272ZM126.321 11.0511C126.321 10.7017 126.45 10.4055 126.708 10.1624C126.966 9.9042 127.27 9.77508 127.62 9.77508C127.969 9.77508 128.273 9.9042 128.531 10.1624C128.789 10.4055 128.918 10.7017 128.918 11.0511C128.918 11.4157 128.789 11.7271 128.531 11.9853C128.273 12.2283 127.969 12.3499 127.62 12.3499C127.27 12.3499 126.966 12.2283 126.708 11.9853C126.45 11.7271 126.321 11.4157 126.321 11.0511ZM126.321 14.3094C126.321 13.9601 126.45 13.6638 126.708 13.4208C126.966 13.1626 127.27 13.0334 127.62 13.0334C127.969 13.0334 128.273 13.1626 128.531 13.4208C128.789 13.6638 128.918 13.9601 128.918 14.3094C128.918 14.674 128.789 14.9854 128.531 15.2437C128.273 15.4867 127.969 15.6082 127.62 15.6082C127.27 15.6082 126.966 15.4867 126.708 15.2437C126.45 14.9854 126.321 14.674 126.321 14.3094ZM129.579 1.276C129.579 0.926621 129.708 0.630406 129.966 0.387358C130.225 0.129119 130.529 0 130.878 0C131.227 0 131.531 0.129119 131.789 0.387358C132.048 0.630406 132.177 0.926621 132.177 1.276C132.177 1.64057 132.048 1.95198 131.789 2.21022C131.531 2.45327 131.227 2.57479 130.878 2.57479C130.529 2.57479 130.225 2.45327 129.966 2.21022C129.708 1.95198 129.579 1.64057 129.579 1.276ZM129.579 7.79272C129.579 7.44334 129.708 7.14713 129.966 6.90408C130.225 6.64584 130.529 6.51672 130.878 6.51672C131.227 6.51672 131.531 6.64584 131.789 6.90408C132.048 7.14713 132.177 7.44334 132.177 7.79272C132.177 8.1573 132.048 8.4687 131.789 8.72694C131.531 8.96999 131.227 9.09151 130.878 9.09151C130.529 9.09151 130.225 8.96999 129.966 8.72694C129.708 8.4687 129.579 8.1573 129.579 7.79272ZM132.837 7.79272C132.837 7.44334 132.967 7.14713 133.225 6.90408C133.483 6.64584 133.787 6.51672 134.136 6.51672C134.486 6.51672 134.789 6.64584 135.048 6.90408C135.306 7.14713 135.435 7.44334 135.435 7.79272C135.435 8.1573 135.306 8.4687 135.048 8.72694C134.789 8.96999 134.486 9.09151 134.136 9.09151C133.787 9.09151 133.483 8.96999 133.225 8.72694C132.967 8.4687 132.837 8.1573 132.837 7.79272ZM136.096 1.276C136.096 0.926621 136.225 0.630406 136.483 0.387358C136.741 0.129119 137.045 0 137.395 0C137.744 0 138.048 0.129119 138.306 0.387358C138.564 0.630406 138.693 0.926621 138.693 1.276C138.693 1.64057 138.564 1.95198 138.306 2.21022C138.048 2.45327 137.744 2.57479 137.395 2.57479C137.045 2.57479 136.741 2.45327 136.483 2.21022C136.225 1.95198 136.096 1.64057 136.096 1.276ZM139.354 1.276C139.354 0.926621 139.483 0.630406 139.741 0.387358C140 0.129119 140.304 0 140.653 0C141.002 0 141.306 0.129119 141.564 0.387358C141.823 0.630406 141.952 0.926621 141.952 1.276C141.952 1.64057 141.823 1.95198 141.564 2.21022C141.306 2.45327 141.002 2.57479 140.653 2.57479C140.304 2.57479 140 2.45327 139.741 2.21022C139.483 1.95198 139.354 1.64057 139.354 1.276ZM132.837 1.276C132.837 0.926621 132.967 0.630406 133.225 0.387358C133.483 0.129119 133.787 0 134.136 0C134.486 0 134.789 0.129119 135.048 0.387358C135.306 0.630406 135.435 0.926621 135.435 1.276C135.435 1.64057 135.306 1.95198 135.048 2.21022C134.789 2.45327 134.486 2.57479 134.136 2.57479C133.787 2.57479 133.483 2.45327 133.225 2.21022C132.967 1.95198 132.837 1.64057 132.837 1.276Z" fill="#4A66E8"/>
<path d="M108.275 11.0511C108.275 10.7017 108.405 10.4055 108.663 10.1624C108.921 9.9042 109.225 9.77508 109.574 9.77508C109.924 9.77508 110.227 9.9042 110.486 10.1624C110.744 10.4055 110.873 10.7017 110.873 11.0511C110.873 11.4157 110.744 11.7271 110.486 11.9853C110.227 12.2283 109.924 12.3499 109.574 12.3499C109.225 12.3499 108.921 12.2283 108.663 11.9853C108.405 11.7271 108.275 11.4157 108.275 11.0511ZM111.534 1.276C111.534 0.926621 111.663 0.630406 111.921 0.387358C112.179 0.129119 112.483 0 112.832 0C113.182 0 113.486 0.129119 113.744 0.387358C114.002 0.630406 114.131 0.926621 114.131 1.276C114.131 1.64057 114.002 1.95198 113.744 2.21022C113.486 2.45327 113.182 2.57479 112.832 2.57479C112.483 2.57479 112.179 2.45327 111.921 2.21022C111.663 1.95198 111.534 1.64057 111.534 1.276ZM111.534 7.79272C111.534 7.44334 111.663 7.14713 111.921 6.90408C112.179 6.64584 112.483 6.51672 112.832 6.51672C113.182 6.51672 113.486 6.64584 113.744 6.90408C114.002 7.14713 114.131 7.44334 114.131 7.79272C114.131 8.1573 114.002 8.4687 113.744 8.72694C113.486 8.96999 113.182 9.09151 112.832 9.09151C112.483 9.09151 112.179 8.96999 111.921 8.72694C111.663 8.4687 111.534 8.1573 111.534 7.79272ZM114.792 7.79272C114.792 7.44334 114.921 7.14713 115.179 6.90408C115.438 6.64584 115.741 6.51672 116.091 6.51672C116.44 6.51672 116.744 6.64584 117.002 6.90408C117.26 7.14713 117.39 7.44334 117.39 7.79272C117.39 8.1573 117.26 8.4687 117.002 8.72694C116.744 8.96999 116.44 9.09151 116.091 9.09151C115.741 9.09151 115.438 8.96999 115.179 8.72694C114.921 8.4687 114.792 8.1573 114.792 7.79272ZM114.792 14.3094C114.792 13.9601 114.921 13.6638 115.179 13.4208C115.438 13.1626 115.741 13.0334 116.091 13.0334C116.44 13.0334 116.744 13.1626 117.002 13.4208C117.26 13.6638 117.39 13.9601 117.39 14.3094C117.39 14.674 117.26 14.9854 117.002 15.2437C116.744 15.4867 116.44 15.6082 116.091 15.6082C115.741 15.6082 115.438 15.4867 115.179 15.2437C114.921 14.9854 114.792 14.674 114.792 14.3094ZM118.05 1.276C118.05 0.926621 118.18 0.630406 118.438 0.387358C118.696 0.129119 119 0 119.349 0C119.699 0 120.002 0.129119 120.261 0.387358C120.519 0.630406 120.648 0.926621 120.648 1.276C120.648 1.64057 120.519 1.95198 120.261 2.21022C120.002 2.45327 119.699 2.57479 119.349 2.57479C119 2.57479 118.696 2.45327 118.438 2.21022C118.18 1.95198 118.05 1.64057 118.05 1.276ZM118.05 7.79272C118.05 7.44334 118.18 7.14713 118.438 6.90408C118.696 6.64584 119 6.51672 119.349 6.51672C119.699 6.51672 120.002 6.64584 120.261 6.90408C120.519 7.14713 120.648 7.44334 120.648 7.79272C120.648 8.1573 120.519 8.4687 120.261 8.72694C120.002 8.96999 119.699 9.09151 119.349 9.09151C119 9.09151 118.696 8.96999 118.438 8.72694C118.18 8.4687 118.05 8.1573 118.05 7.79272ZM118.05 14.3094C118.05 13.9601 118.18 13.6638 118.438 13.4208C118.696 13.1626 119 13.0334 119.349 13.0334C119.699 13.0334 120.002 13.1626 120.261 13.4208C120.519 13.6638 120.648 13.9601 120.648 14.3094C120.648 14.674 120.519 14.9854 120.261 15.2437C120.002 15.4867 119.699 15.6082 119.349 15.6082C119 15.6082 118.696 15.4867 118.438 15.2437C118.18 14.9854 118.05 14.674 118.05 14.3094ZM121.309 7.79272C121.309 7.44334 121.438 7.14713 121.696 6.90408C121.954 6.64584 122.258 6.51672 122.607 6.51672C122.957 6.51672 123.261 6.64584 123.519 6.90408C123.777 7.14713 123.906 7.44334 123.906 7.79272C123.906 8.1573 123.777 8.4687 123.519 8.72694C123.261 8.96999 122.957 9.09151 122.607 9.09151C122.258 9.09151 121.954 8.96999 121.696 8.72694C121.438 8.4687 121.309 8.1573 121.309 7.79272ZM121.309 14.3094C121.309 13.9601 121.438 13.6638 121.696 13.4208C121.954 13.1626 122.258 13.0334 122.607 13.0334C122.957 13.0334 123.261 13.1626 123.519 13.4208C123.777 13.6638 123.906 13.9601 123.906 14.3094C123.906 14.674 123.777 14.9854 123.519 15.2437C123.261 15.4867 122.957 15.6082 122.607 15.6082C122.258 15.6082 121.954 15.4867 121.696 15.2437C121.438 14.9854 121.309 14.674 121.309 14.3094ZM121.309 4.53436C121.309 4.18498 121.438 3.88877 121.696 3.64572C121.954 3.38748 122.258 3.25836 122.607 3.25836C122.957 3.25836 123.261 3.38748 123.519 3.64572C123.777 3.88877 123.906 4.18498 123.906 4.53436C123.906 4.89893 123.777 5.21034 123.519 5.46858C123.261 5.71163 122.957 5.83315 122.607 5.83315C122.258 5.83315 121.954 5.71163 121.696 5.46858C121.438 5.21034 121.309 4.89893 121.309 4.53436ZM121.309 11.0511C121.309 10.7017 121.438 10.4055 121.696 10.1624C121.954 9.9042 122.258 9.77508 122.607 9.77508C122.957 9.77508 123.261 9.9042 123.519 10.1624C123.777 10.4055 123.906 10.7017 123.906 11.0511C123.906 11.4157 123.777 11.7271 123.519 11.9853C123.261 12.2283 122.957 12.3499 122.607 12.3499C122.258 12.3499 121.954 12.2283 121.696 11.9853C121.438 11.7271 121.309 11.4157 121.309 11.0511ZM111.534 14.3094C111.534 13.9601 111.663 13.6638 111.921 13.4208C112.179 13.1626 112.483 13.0334 112.832 13.0334C113.182 13.0334 113.486 13.1626 113.744 13.4208C114.002 13.6638 114.131 13.9601 114.131 14.3094C114.131 14.674 114.002 14.9854 113.744 15.2437C113.486 15.4867 113.182 15.6082 112.832 15.6082C112.483 15.6082 112.179 15.4867 111.921 15.2437C111.663 14.9854 111.534 14.674 111.534 14.3094ZM108.275 1.276C108.275 0.926621 108.405 0.630406 108.663 0.387358C108.921 0.129119 109.225 0 109.574 0C109.924 0 110.227 0.129119 110.486 0.387358C110.744 0.630406 110.873 0.926621 110.873 1.276C110.873 1.64057 110.744 1.95198 110.486 2.21022C110.227 2.45327 109.924 2.57479 109.574 2.57479C109.225 2.57479 108.921 2.45327 108.663 2.21022C108.405 1.95198 108.275 1.64057 108.275 1.276ZM114.792 1.276C114.792 0.926621 114.921 0.630406 115.179 0.387358C115.438 0.129119 115.741 0 116.091 0C116.44 0 116.744 0.129119 117.002 0.387358C117.26 0.630406 117.39 0.926621 117.39 1.276C117.39 1.64057 117.26 1.95198 117.002 2.21022C116.744 2.45327 116.44 2.57479 116.091 2.57479C115.741 2.57479 115.438 2.45327 115.179 2.21022C114.921 1.95198 114.792 1.64057 114.792 1.276Z" fill="#4A66E8"/>
<path d="M90.2305 4.53436C90.2305 4.18498 90.3596 3.88877 90.6178 3.64572C90.8761 3.38748 91.1799 3.25836 91.5292 3.25836C91.8786 3.25836 92.1824 3.38748 92.4407 3.64572C92.6989 3.88877 92.828 4.18498 92.828 4.53436C92.828 4.89893 92.6989 5.21034 92.4407 5.46858C92.1824 5.71163 91.8786 5.83315 91.5292 5.83315C91.1799 5.83315 90.8761 5.71163 90.6178 5.46858C90.3596 5.21034 90.2305 4.89893 90.2305 4.53436ZM90.2305 7.79272C90.2305 7.44334 90.3596 7.14713 90.6178 6.90408C90.8761 6.64584 91.1799 6.51672 91.5292 6.51672C91.8786 6.51672 92.1824 6.64584 92.4407 6.90408C92.6989 7.14713 92.828 7.44334 92.828 7.79272C92.828 8.1573 92.6989 8.4687 92.4407 8.72694C92.1824 8.96999 91.8786 9.09151 91.5292 9.09151C91.1799 9.09151 90.8761 8.96999 90.6178 8.72694C90.3596 8.4687 90.2305 8.1573 90.2305 7.79272ZM90.2305 11.0511C90.2305 10.7017 90.3596 10.4055 90.6178 10.1624C90.8761 9.9042 91.1799 9.77508 91.5292 9.77508C91.8786 9.77508 92.1824 9.9042 92.4407 10.1624C92.6989 10.4055 92.828 10.7017 92.828 11.0511C92.828 11.4157 92.6989 11.7271 92.4407 11.9853C92.1824 12.2283 91.8786 12.3499 91.5292 12.3499C91.1799 12.3499 90.8761 12.2283 90.6178 11.9853C90.3596 11.7271 90.2305 11.4157 90.2305 11.0511ZM90.2305 14.3094C90.2305 13.9601 90.3596 13.6638 90.6178 13.4208C90.8761 13.1626 91.1799 13.0334 91.5292 13.0334C91.8786 13.0334 92.1824 13.1626 92.4407 13.4208C92.6989 13.6638 92.828 13.9601 92.828 14.3094C92.828 14.674 92.6989 14.9854 92.4407 15.2437C92.1824 15.4867 91.8786 15.6082 91.5292 15.6082C91.1799 15.6082 90.8761 15.4867 90.6178 15.2437C90.3596 14.9854 90.2305 14.674 90.2305 14.3094ZM100.005 1.276C100.005 0.926621 100.135 0.630406 100.393 0.387358C100.651 0.129119 100.955 0 101.304 0C101.654 0 101.957 0.129119 102.216 0.387358C102.474 0.630406 102.603 0.926621 102.603 1.276C102.603 1.64057 102.474 1.95198 102.216 2.21022C101.957 2.45327 101.654 2.57479 101.304 2.57479C100.955 2.57479 100.651 2.45327 100.393 2.21022C100.135 1.95198 100.005 1.64057 100.005 1.276ZM103.264 4.53436C103.264 4.18498 103.393 3.88877 103.651 3.64572C103.909 3.38748 104.213 3.25836 104.563 3.25836C104.912 3.25836 105.216 3.38748 105.474 3.64572C105.732 3.88877 105.861 4.18498 105.861 4.53436C105.861 4.89893 105.732 5.21034 105.474 5.46858C105.216 5.71163 104.912 5.83315 104.563 5.83315C104.213 5.83315 103.909 5.71163 103.651 5.46858C103.393 5.21034 103.264 4.89893 103.264 4.53436ZM93.4888 4.53436C93.4888 4.18498 93.6179 3.88877 93.8762 3.64572C94.1344 3.38748 94.4382 3.25836 94.7876 3.25836C95.137 3.25836 95.4408 3.38748 95.699 3.64572C95.9572 3.88877 96.0864 4.18498 96.0864 4.53436C96.0864 4.89893 95.9572 5.21034 95.699 5.46858C95.4408 5.71163 95.137 5.83315 94.7876 5.83315C94.4382 5.83315 94.1344 5.71163 93.8762 5.46858C93.6179 5.21034 93.4888 4.89893 93.4888 4.53436ZM90.2305 1.276C90.2305 0.926621 90.3596 0.630406 90.6178 0.387358C90.8761 0.129119 91.1799 0 91.5292 0C91.8786 0 92.1824 0.129119 92.4407 0.387358C92.6989 0.630406 92.828 0.926621 92.828 1.276C92.828 1.64057 92.6989 1.95198 92.4407 2.21022C92.1824 2.45327 91.8786 2.57479 91.5292 2.57479C91.1799 2.57479 90.8761 2.45327 90.6178 2.21022C90.3596 1.95198 90.2305 1.64057 90.2305 1.276ZM96.7471 1.276C96.7471 0.926621 96.8762 0.630406 97.1345 0.387358C97.3927 0.129119 97.6965 0 98.0459 0C98.3953 0 98.6991 0.129119 98.9573 0.387358C99.2156 0.630406 99.3447 0.926621 99.3447 1.276C99.3447 1.64057 99.2156 1.95198 98.9573 2.21022C98.6991 2.45327 98.3953 2.57479 98.0459 2.57479C97.6965 2.57479 97.3927 2.45327 97.1345 2.21022C96.8762 1.95198 96.7471 1.64057 96.7471 1.276Z" fill="#4A66E8"/>
<path d="M72.1821 7.79272C72.1821 7.44334 72.3112 7.14713 72.5695 6.90408C72.8277 6.64584 73.1315 6.51672 73.4809 6.51672C73.8303 6.51672 74.1341 6.64584 74.3923 6.90408C74.6506 7.14713 74.7797 7.44334 74.7797 7.79272C74.7797 8.1573 74.6506 8.4687 74.3923 8.72694C74.1341 8.96999 73.8303 9.09151 73.4809 9.09151C73.1315 9.09151 72.8277 8.96999 72.5695 8.72694C72.3112 8.4687 72.1821 8.1573 72.1821 7.79272ZM72.1821 11.0511C72.1821 10.7017 72.3112 10.4055 72.5695 10.1624C72.8277 9.9042 73.1315 9.77508 73.4809 9.77508C73.8303 9.77508 74.1341 9.9042 74.3923 10.1624C74.6506 10.4055 74.7797 10.7017 74.7797 11.0511C74.7797 11.4157 74.6506 11.7271 74.3923 11.9853C74.1341 12.2283 73.8303 12.3499 73.4809 12.3499C73.1315 12.3499 72.8277 12.2283 72.5695 11.9853C72.3112 11.7271 72.1821 11.4157 72.1821 11.0511ZM78.6988 4.53436C78.6988 4.18498 78.8279 3.88877 79.0861 3.64572C79.3444 3.38748 79.6482 3.25836 79.9976 3.25836C80.3469 3.25836 80.6508 3.38748 80.909 3.64572C81.1672 3.88877 81.2963 4.18498 81.2963 4.53436C81.2963 4.89893 81.1672 5.21034 80.909 5.46858C80.6508 5.71163 80.3469 5.83315 79.9976 5.83315C79.6482 5.83315 79.3444 5.71163 79.0861 5.46858C78.8279 5.21034 78.6988 4.89893 78.6988 4.53436ZM78.6988 14.3094C78.6988 13.9601 78.8279 13.6638 79.0861 13.4208C79.3444 13.1626 79.6482 13.0334 79.9976 13.0334C80.3469 13.0334 80.6508 13.1626 80.909 13.4208C81.1672 13.6638 81.2963 13.9601 81.2963 14.3094C81.2963 14.674 81.1672 14.9854 80.909 15.2437C80.6508 15.4867 80.3469 15.6082 79.9976 15.6082C79.6482 15.6082 79.3444 15.4867 79.0861 15.2437C78.8279 14.9854 78.6988 14.674 78.6988 14.3094ZM81.9571 14.3094C81.9571 13.9601 82.0862 13.6638 82.3445 13.4208C82.6027 13.1626 82.9065 13.0334 83.2559 13.0334C83.6053 13.0334 83.9091 13.1626 84.1673 13.4208C84.4256 13.6638 84.5547 13.9601 84.5547 14.3094C84.5547 14.674 84.4256 14.9854 84.1673 15.2437C83.9091 15.4867 83.6053 15.6082 83.2559 15.6082C82.9065 15.6082 82.6027 15.4867 82.3445 15.2437C82.0862 14.9854 81.9571 14.674 81.9571 14.3094ZM85.2155 1.276C85.2155 0.926621 85.3446 0.630406 85.6028 0.387358C85.861 0.129119 86.1648 0 86.5142 0C86.8636 0 87.1674 0.129119 87.4257 0.387358C87.6839 0.630406 87.813 0.926621 87.813 1.276C87.813 1.64057 87.6839 1.95198 87.4257 2.21022C87.1674 2.45327 86.8636 2.57479 86.5142 2.57479C86.1648 2.57479 85.861 2.45327 85.6028 2.21022C85.3446 1.95198 85.2155 1.64057 85.2155 1.276ZM85.2155 7.79272C85.2155 7.44334 85.3446 7.14713 85.6028 6.90408C85.861 6.64584 86.1648 6.51672 86.5142 6.51672C86.8636 6.51672 87.1674 6.64584 87.4257 6.90408C87.6839 7.14713 87.813 7.44334 87.813 7.79272C87.813 8.1573 87.6839 8.4687 87.4257 8.72694C87.1674 8.96999 86.8636 9.09151 86.5142 9.09151C86.1648 9.09151 85.861 8.96999 85.6028 8.72694C85.3446 8.4687 85.2155 8.1573 85.2155 7.79272ZM85.2155 14.3094C85.2155 13.9601 85.3446 13.6638 85.6028 13.4208C85.861 13.1626 86.1648 13.0334 86.5142 13.0334C86.8636 13.0334 87.1674 13.1626 87.4257 13.4208C87.6839 13.6638 87.813 13.9601 87.813 14.3094C87.813 14.674 87.6839 14.9854 87.4257 15.2437C87.1674 15.4867 86.8636 15.6082 86.5142 15.6082C86.1648 15.6082 85.861 15.4867 85.6028 15.2437C85.3446 14.9854 85.2155 14.674 85.2155 14.3094ZM81.9571 4.53436C81.9571 4.18498 82.0862 3.88877 82.3445 3.64572C82.6027 3.38748 82.9065 3.25836 83.2559 3.25836C83.6053 3.25836 83.9091 3.38748 84.1673 3.64572C84.4256 3.88877 84.5547 4.18498 84.5547 4.53436C84.5547 4.89893 84.4256 5.21034 84.1673 5.46858C83.9091 5.71163 83.6053 5.83315 83.2559 5.83315C82.9065 5.83315 82.6027 5.71163 82.3445 5.46858C82.0862 5.21034 81.9571 4.89893 81.9571 4.53436ZM85.2155 4.53436C85.2155 4.18498 85.3446 3.88877 85.6028 3.64572C85.861 3.38748 86.1648 3.25836 86.5142 3.25836C86.8636 3.25836 87.1674 3.38748 87.4257 3.64572C87.6839 3.88877 87.813 4.18498 87.813 4.53436C87.813 4.89893 87.6839 5.21034 87.4257 5.46858C87.1674 5.71163 86.8636 5.83315 86.5142 5.83315C86.1648 5.83315 85.861 5.71163 85.6028 5.46858C85.3446 5.21034 85.2155 4.89893 85.2155 4.53436ZM85.2155 11.0511C85.2155 10.7017 85.3446 10.4055 85.6028 10.1624C85.861 9.9042 86.1648 9.77508 86.5142 9.77508C86.8636 9.77508 87.1674 9.9042 87.4257 10.1624C87.6839 10.4055 87.813 10.7017 87.813 11.0511C87.813 11.4157 87.6839 11.7271 87.4257 11.9853C87.1674 12.2283 86.8636 12.3499 86.5142 12.3499C86.1648 12.3499 85.861 12.2283 85.6028 11.9853C85.3446 11.7271 85.2155 11.4157 85.2155 11.0511ZM75.4405 14.3094C75.4405 13.9601 75.5696 13.6638 75.8278 13.4208C76.0861 13.1626 76.3899 13.0334 76.7392 13.0334C77.0886 13.0334 77.3924 13.1626 77.6507 13.4208C77.9089 13.6638 78.038 13.9601 78.038 14.3094C78.038 14.674 77.9089 14.9854 77.6507 15.2437C77.3924 15.4867 77.0886 15.6082 76.7392 15.6082C76.3899 15.6082 76.0861 15.4867 75.8278 15.2437C75.5696 14.9854 75.4405 14.674 75.4405 14.3094ZM75.4405 4.53436C75.4405 4.18498 75.5696 3.88877 75.8278 3.64572C76.0861 3.38748 76.3899 3.25836 76.7392 3.25836C77.0886 3.25836 77.3924 3.38748 77.6507 3.64572C77.9089 3.88877 78.038 4.18498 78.038 4.53436C78.038 4.89893 77.9089 5.21034 77.6507 5.46858C77.3924 5.71163 77.0886 5.83315 76.7392 5.83315C76.3899 5.83315 76.0861 5.71163 75.8278 5.46858C75.5696 5.21034 75.4405 4.89893 75.4405 4.53436Z" fill="#4A66E8"/>
<path d="M54.1367 4.53436C54.1367 4.18498 54.2658 3.88877 54.5241 3.64572C54.7823 3.38748 55.0861 3.25836 55.4355 3.25836C55.7849 3.25836 56.0887 3.38748 56.3469 3.64572C56.6052 3.88877 56.7343 4.18498 56.7343 4.53436C56.7343 4.89893 56.6052 5.21034 56.3469 5.46858C56.0887 5.71163 55.7849 5.83315 55.4355 5.83315C55.0861 5.83315 54.7823 5.71163 54.5241 5.46858C54.2658 5.21034 54.1367 4.89893 54.1367 4.53436ZM54.1367 7.79272C54.1367 7.44334 54.2658 7.14713 54.5241 6.90408C54.7823 6.64584 55.0861 6.51672 55.4355 6.51672C55.7849 6.51672 56.0887 6.64584 56.3469 6.90408C56.6052 7.14713 56.7343 7.44334 56.7343 7.79272C56.7343 8.1573 56.6052 8.4687 56.3469 8.72694C56.0887 8.96999 55.7849 9.09151 55.4355 9.09151C55.0861 9.09151 54.7823 8.96999 54.5241 8.72694C54.2658 8.4687 54.1367 8.1573 54.1367 7.79272ZM54.1367 11.0511C54.1367 10.7017 54.2658 10.4055 54.5241 10.1624C54.7823 9.9042 55.0861 9.77508 55.4355 9.77508C55.7849 9.77508 56.0887 9.9042 56.3469 10.1624C56.6052 10.4055 56.7343 10.7017 56.7343 11.0511C56.7343 11.4157 56.6052 11.7271 56.3469 11.9853C56.0887 12.2283 55.7849 12.3499 55.4355 12.3499C55.0861 12.3499 54.7823 12.2283 54.5241 11.9853C54.2658 11.7271 54.1367 11.4157 54.1367 11.0511ZM57.395 1.276C57.395 0.926621 57.5242 0.630406 57.7824 0.387358C58.0406 0.129119 58.3445 0 58.6938 0C59.0432 0 59.347 0.129119 59.6052 0.387358C59.8635 0.630406 59.9926 0.926621 59.9926 1.276C59.9926 1.64057 59.8635 1.95198 59.6052 2.21022C59.347 2.45327 59.0432 2.57479 58.6938 2.57479C58.3445 2.57479 58.0406 2.45327 57.7824 2.21022C57.5242 1.95198 57.395 1.64057 57.395 1.276ZM60.6534 14.3094C60.6534 13.9601 60.7825 13.6638 61.0407 13.4208C61.299 13.1626 61.6028 13.0334 61.9522 13.0334C62.3015 13.0334 62.6053 13.1626 62.8636 13.4208C63.1218 13.6638 63.2509 13.9601 63.2509 14.3094C63.2509 14.674 63.1218 14.9854 62.8636 15.2437C62.6053 15.4867 62.3015 15.6082 61.9522 15.6082C61.6028 15.6082 61.299 15.4867 61.0407 15.2437C60.7825 14.9854 60.6534 14.674 60.6534 14.3094ZM63.9117 1.276C63.9117 0.926621 64.0408 0.630406 64.2991 0.387358C64.5573 0.129119 64.8611 0 65.2105 0C65.5599 0 65.8637 0.129119 66.1219 0.387358C66.3801 0.630406 66.5093 0.926621 66.5093 1.276C66.5093 1.64057 66.3801 1.95198 66.1219 2.21022C65.8637 2.45327 65.5599 2.57479 65.2105 2.57479C64.8611 2.57479 64.5573 2.45327 64.2991 2.21022C64.0408 1.95198 63.9117 1.64057 63.9117 1.276ZM63.9117 14.3094C63.9117 13.9601 64.0408 13.6638 64.2991 13.4208C64.5573 13.1626 64.8611 13.0334 65.2105 13.0334C65.5599 13.0334 65.8637 13.1626 66.1219 13.4208C66.3801 13.6638 66.5093 13.9601 66.5093 14.3094C66.5093 14.674 66.3801 14.9854 66.1219 15.2437C65.8637 15.4867 65.5599 15.6082 65.2105 15.6082C64.8611 15.6082 64.5573 15.4867 64.2991 15.2437C64.0408 14.9854 63.9117 14.674 63.9117 14.3094ZM67.17 7.79272C67.17 7.44334 67.2992 7.14713 67.5574 6.90408C67.8156 6.64584 68.1194 6.51672 68.4688 6.51672C68.8182 6.51672 69.122 6.64584 69.3802 6.90408C69.6385 7.14713 69.7676 7.44334 69.7676 7.79272C69.7676 8.1573 69.6385 8.4687 69.3802 8.72694C69.122 8.96999 68.8182 9.09151 68.4688 9.09151C68.1194 9.09151 67.8156 8.96999 67.5574 8.72694C67.2992 8.4687 67.17 8.1573 67.17 7.79272ZM67.17 4.53436C67.17 4.18498 67.2992 3.88877 67.5574 3.64572C67.8156 3.38748 68.1194 3.25836 68.4688 3.25836C68.8182 3.25836 69.122 3.38748 69.3802 3.64572C69.6385 3.88877 69.7676 4.18498 69.7676 4.53436C69.7676 4.89893 69.6385 5.21034 69.3802 5.46858C69.122 5.71163 68.8182 5.83315 68.4688 5.83315C68.1194 5.83315 67.8156 5.71163 67.5574 5.46858C67.2992 5.21034 67.17 4.89893 67.17 4.53436ZM67.17 11.0511C67.17 10.7017 67.2992 10.4055 67.5574 10.1624C67.8156 9.9042 68.1194 9.77508 68.4688 9.77508C68.8182 9.77508 69.122 9.9042 69.3802 10.1624C69.6385 10.4055 69.7676 10.7017 69.7676 11.0511C69.7676 11.4157 69.6385 11.7271 69.3802 11.9853C69.122 12.2283 68.8182 12.3499 68.4688 12.3499C68.1194 12.3499 67.8156 12.2283 67.5574 11.9853C67.2992 11.7271 67.17 11.4157 67.17 11.0511ZM57.395 14.3094C57.395 13.9601 57.5242 13.6638 57.7824 13.4208C58.0406 13.1626 58.3445 13.0334 58.6938 13.0334C59.0432 13.0334 59.347 13.1626 59.6052 13.4208C59.8635 13.6638 59.9926 13.9601 59.9926 14.3094C59.9926 14.674 59.8635 14.9854 59.6052 15.2437C59.347 15.4867 59.0432 15.6082 58.6938 15.6082C58.3445 15.6082 58.0406 15.4867 57.7824 15.2437C57.5242 14.9854 57.395 14.674 57.395 14.3094ZM60.6534 1.276C60.6534 0.926621 60.7825 0.630406 61.0407 0.387358C61.299 0.129119 61.6028 0 61.9522 0C62.3015 0 62.6053 0.129119 62.8636 0.387358C63.1218 0.630406 63.2509 0.926621 63.2509 1.276C63.2509 1.64057 63.1218 1.95198 62.8636 2.21022C62.6053 2.45327 62.3015 2.57479 61.9522 2.57479C61.6028 2.57479 61.299 2.45327 61.0407 2.21022C60.7825 1.95198 60.6534 1.64057 60.6534 1.276Z" fill="#4A66E8"/>
<path d="M36.0903 4.53436C36.0903 4.18498 36.2194 3.88877 36.4777 3.64572C36.7359 3.38748 37.0397 3.25836 37.3891 3.25836C37.7385 3.25836 38.0423 3.38748 38.3005 3.64572C38.5588 3.88877 38.6879 4.18498 38.6879 4.53436C38.6879 4.89893 38.5588 5.21034 38.3005 5.46858C38.0423 5.71163 37.7385 5.83315 37.3891 5.83315C37.0397 5.83315 36.7359 5.71163 36.4777 5.46858C36.2194 5.21034 36.0903 4.89893 36.0903 4.53436ZM36.0903 7.79272C36.0903 7.44334 36.2194 7.14713 36.4777 6.90408C36.7359 6.64584 37.0397 6.51672 37.3891 6.51672C37.7385 6.51672 38.0423 6.64584 38.3005 6.90408C38.5588 7.14713 38.6879 7.44334 38.6879 7.79272C38.6879 8.1573 38.5588 8.4687 38.3005 8.72694C38.0423 8.96999 37.7385 9.09151 37.3891 9.09151C37.0397 9.09151 36.7359 8.96999 36.4777 8.72694C36.2194 8.4687 36.0903 8.1573 36.0903 7.79272ZM36.0903 11.0511C36.0903 10.7017 36.2194 10.4055 36.4777 10.1624C36.7359 9.9042 37.0397 9.77508 37.3891 9.77508C37.7385 9.77508 38.0423 9.9042 38.3005 10.1624C38.5588 10.4055 38.6879 10.7017 38.6879 11.0511C38.6879 11.4157 38.5588 11.7271 38.3005 11.9853C38.0423 12.2283 37.7385 12.3499 37.3891 12.3499C37.0397 12.3499 36.7359 12.2283 36.4777 11.9853C36.2194 11.7271 36.0903 11.4157 36.0903 11.0511ZM36.0903 14.3094C36.0903 13.9601 36.2194 13.6638 36.4777 13.4208C36.7359 13.1626 37.0397 13.0334 37.3891 13.0334C37.7385 13.0334 38.0423 13.1626 38.3005 13.4208C38.5588 13.6638 38.6879 13.9601 38.6879 14.3094C38.6879 14.674 38.5588 14.9854 38.3005 15.2437C38.0423 15.4867 37.7385 15.6082 37.3891 15.6082C37.0397 15.6082 36.7359 15.4867 36.4777 15.2437C36.2194 14.9854 36.0903 14.674 36.0903 14.3094ZM45.8653 1.276C45.8653 0.926621 45.9944 0.630406 46.2527 0.387358C46.5109 0.129119 46.8147 0 47.1641 0C47.5135 0 47.8173 0.129119 48.0755 0.387358C48.3338 0.630406 48.4629 0.926621 48.4629 1.276C48.4629 1.64057 48.3338 1.95198 48.0755 2.21022C47.8173 2.45327 47.5135 2.57479 47.1641 2.57479C46.8147 2.57479 46.5109 2.45327 46.2527 2.21022C45.9944 1.95198 45.8653 1.64057 45.8653 1.276ZM49.1237 4.53436C49.1237 4.18498 49.2528 3.88877 49.511 3.64572C49.7692 3.38748 50.073 3.25836 50.4224 3.25836C50.7718 3.25836 51.0756 3.38748 51.3339 3.64572C51.5921 3.88877 51.7212 4.18498 51.7212 4.53436C51.7212 4.89893 51.5921 5.21034 51.3339 5.46858C51.0756 5.71163 50.7718 5.83315 50.4224 5.83315C50.073 5.83315 49.7692 5.71163 49.511 5.46858C49.2528 5.21034 49.1237 4.89893 49.1237 4.53436ZM39.3487 4.53436C39.3487 4.18498 39.4778 3.88877 39.736 3.64572C39.9943 3.38748 40.2981 3.25836 40.6474 3.25836C40.9968 3.25836 41.3006 3.38748 41.5589 3.64572C41.8171 3.88877 41.9462 4.18498 41.9462 4.53436C41.9462 4.89893 41.8171 5.21034 41.5589 5.46858C41.3006 5.71163 40.9968 5.83315 40.6474 5.83315C40.2981 5.83315 39.9943 5.71163 39.736 5.46858C39.4778 5.21034 39.3487 4.89893 39.3487 4.53436ZM36.0903 1.276C36.0903 0.926621 36.2194 0.630406 36.4777 0.387358C36.7359 0.129119 37.0397 0 37.3891 0C37.7385 0 38.0423 0.129119 38.3005 0.387358C38.5588 0.630406 38.6879 0.926621 38.6879 1.276C38.6879 1.64057 38.5588 1.95198 38.3005 2.21022C38.0423 2.45327 37.7385 2.57479 37.3891 2.57479C37.0397 2.57479 36.7359 2.45327 36.4777 2.21022C36.2194 1.95198 36.0903 1.64057 36.0903 1.276ZM42.607 1.276C42.607 0.926621 42.7361 0.630406 42.9943 0.387358C43.2526 0.129119 43.5564 0 43.9058 0C44.2551 0 44.559 0.129119 44.8172 0.387358C45.0754 0.630406 45.2045 0.926621 45.2045 1.276C45.2045 1.64057 45.0754 1.95198 44.8172 2.21022C44.559 2.45327 44.2551 2.57479 43.9058 2.57479C43.5564 2.57479 43.2526 2.45327 42.9943 2.21022C42.7361 1.95198 42.607 1.64057 42.607 1.276Z" fill="#4A66E8"/>
<path d="M18.0469 4.53436C18.0469 4.18498 18.176 3.88877 18.4342 3.64572C18.6925 3.38748 18.9963 3.25836 19.3457 3.25836C19.695 3.25836 19.9988 3.38748 20.2571 3.64572C20.5153 3.88877 20.6444 4.18498 20.6444 4.53436C20.6444 4.89893 20.5153 5.21034 20.2571 5.46858C19.9988 5.71163 19.695 5.83315 19.3457 5.83315C18.9963 5.83315 18.6925 5.71163 18.4342 5.46858C18.176 5.21034 18.0469 4.89893 18.0469 4.53436ZM18.0469 7.79272C18.0469 7.44334 18.176 7.14713 18.4342 6.90408C18.6925 6.64584 18.9963 6.51672 19.3457 6.51672C19.695 6.51672 19.9988 6.64584 20.2571 6.90408C20.5153 7.14713 20.6444 7.44334 20.6444 7.79272C20.6444 8.1573 20.5153 8.4687 20.2571 8.72694C19.9988 8.96999 19.695 9.09151 19.3457 9.09151C18.9963 9.09151 18.6925 8.96999 18.4342 8.72694C18.176 8.4687 18.0469 8.1573 18.0469 7.79272ZM18.0469 11.0511C18.0469 10.7017 18.176 10.4055 18.4342 10.1624C18.6925 9.9042 18.9963 9.77508 19.3457 9.77508C19.695 9.77508 19.9988 9.9042 20.2571 10.1624C20.5153 10.4055 20.6444 10.7017 20.6444 11.0511C20.6444 11.4157 20.5153 11.7271 20.2571 11.9853C19.9988 12.2283 19.695 12.3499 19.3457 12.3499C18.9963 12.3499 18.6925 12.2283 18.4342 11.9853C18.176 11.7271 18.0469 11.4157 18.0469 11.0511ZM21.3052 1.276C21.3052 0.926621 21.4343 0.630406 21.6926 0.387358C21.9508 0.129119 22.2546 0 22.604 0C22.9534 0 23.2572 0.129119 23.5154 0.387358C23.7736 0.630406 23.9028 0.926621 23.9028 1.276C23.9028 1.64057 23.7736 1.95198 23.5154 2.21022C23.2572 2.45327 22.9534 2.57479 22.604 2.57479C22.2546 2.57479 21.9508 2.45327 21.6926 2.21022C21.4343 1.95198 21.3052 1.64057 21.3052 1.276ZM21.3052 7.79272C21.3052 7.44334 21.4343 7.14713 21.6926 6.90408C21.9508 6.64584 22.2546 6.51672 22.604 6.51672C22.9534 6.51672 23.2572 6.64584 23.5154 6.90408C23.7736 7.14713 23.9028 7.44334 23.9028 7.79272C23.9028 8.1573 23.7736 8.4687 23.5154 8.72694C23.2572 8.96999 22.9534 9.09151 22.604 9.09151C22.2546 9.09151 21.9508 8.96999 21.6926 8.72694C21.4343 8.4687 21.3052 8.1573 21.3052 7.79272ZM24.5635 7.79272C24.5635 7.44334 24.6927 7.14713 24.9509 6.90408C25.2091 6.64584 25.5129 6.51672 25.8623 6.51672C26.2117 6.51672 26.5155 6.64584 26.7737 6.90408C27.032 7.14713 27.1611 7.44334 27.1611 7.79272C27.1611 8.1573 27.032 8.4687 26.7737 8.72694C26.5155 8.96999 26.2117 9.09151 25.8623 9.09151C25.5129 9.09151 25.2091 8.96999 24.9509 8.72694C24.6927 8.4687 24.5635 8.1573 24.5635 7.79272ZM24.5635 14.3094C24.5635 13.9601 24.6927 13.6638 24.9509 13.4208C25.2091 13.1626 25.5129 13.0334 25.8623 13.0334C26.2117 13.0334 26.5155 13.1626 26.7737 13.4208C27.032 13.6638 27.1611 13.9601 27.1611 14.3094C27.1611 14.674 27.032 14.9854 26.7737 15.2437C26.5155 15.4867 26.2117 15.6082 25.8623 15.6082C25.5129 15.6082 25.2091 15.4867 24.9509 15.2437C24.6927 14.9854 24.5635 14.674 24.5635 14.3094ZM27.8219 1.276C27.8219 0.926621 27.951 0.630406 28.2092 0.387358C28.4675 0.129119 28.7713 0 29.1206 0C29.47 0 29.7738 0.129119 30.0321 0.387358C30.2903 0.630406 30.4194 0.926621 30.4194 1.276C30.4194 1.64057 30.2903 1.95198 30.0321 2.21022C29.7738 2.45327 29.47 2.57479 29.1206 2.57479C28.7713 2.57479 28.4675 2.45327 28.2092 2.21022C27.951 1.95198 27.8219 1.64057 27.8219 1.276ZM27.8219 7.79272C27.8219 7.44334 27.951 7.14713 28.2092 6.90408C28.4675 6.64584 28.7713 6.51672 29.1206 6.51672C29.47 6.51672 29.7738 6.64584 30.0321 6.90408C30.2903 7.14713 30.4194 7.44334 30.4194 7.79272C30.4194 8.1573 30.2903 8.4687 30.0321 8.72694C29.7738 8.96999 29.47 9.09151 29.1206 9.09151C28.7713 9.09151 28.4675 8.96999 28.2092 8.72694C27.951 8.4687 27.8219 8.1573 27.8219 7.79272ZM27.8219 14.3094C27.8219 13.9601 27.951 13.6638 28.2092 13.4208C28.4675 13.1626 28.7713 13.0334 29.1206 13.0334C29.47 13.0334 29.7738 13.1626 30.0321 13.4208C30.2903 13.6638 30.4194 13.9601 30.4194 14.3094C30.4194 14.674 30.2903 14.9854 30.0321 15.2437C29.7738 15.4867 29.47 15.6082 29.1206 15.6082C28.7713 15.6082 28.4675 15.4867 28.2092 15.2437C27.951 14.9854 27.8219 14.674 27.8219 14.3094ZM31.0802 7.79272C31.0802 7.44334 31.2093 7.14713 31.4676 6.90408C31.7258 6.64584 32.0296 6.51672 32.379 6.51672C32.7284 6.51672 33.0322 6.64584 33.2904 6.90408C33.5486 7.14713 33.6777 7.44334 33.6777 7.79272C33.6777 8.1573 33.5486 8.4687 33.2904 8.72694C33.0322 8.96999 32.7284 9.09151 32.379 9.09151C32.0296 9.09151 31.7258 8.96999 31.4676 8.72694C31.2093 8.4687 31.0802 8.1573 31.0802 7.79272ZM31.0802 14.3094C31.0802 13.9601 31.2093 13.6638 31.4676 13.4208C31.7258 13.1626 32.0296 13.0334 32.379 13.0334C32.7284 13.0334 33.0322 13.1626 33.2904 13.4208C33.5486 13.6638 33.6777 13.9601 33.6777 14.3094C33.6777 14.674 33.5486 14.9854 33.2904 15.2437C33.0322 15.4867 32.7284 15.6082 32.379 15.6082C32.0296 15.6082 31.7258 15.4867 31.4676 15.2437C31.2093 14.9854 31.0802 14.674 31.0802 14.3094ZM31.0802 4.53436C31.0802 4.18498 31.2093 3.88877 31.4676 3.64572C31.7258 3.38748 32.0296 3.25836 32.379 3.25836C32.7284 3.25836 33.0322 3.38748 33.2904 3.64572C33.5486 3.88877 33.6777 4.18498 33.6777 4.53436C33.6777 4.89893 33.5486 5.21034 33.2904 5.46858C33.0322 5.71163 32.7284 5.83315 32.379 5.83315C32.0296 5.83315 31.7258 5.71163 31.4676 5.46858C31.2093 5.21034 31.0802 4.89893 31.0802 4.53436ZM21.3052 14.3094C21.3052 13.9601 21.4343 13.6638 21.6926 13.4208C21.9508 13.1626 22.2546 13.0334 22.604 13.0334C22.9534 13.0334 23.2572 13.1626 23.5154 13.4208C23.7736 13.6638 23.9028 13.9601 23.9028 14.3094C23.9028 14.674 23.7736 14.9854 23.5154 15.2437C23.2572 15.4867 22.9534 15.6082 22.604 15.6082C22.2546 15.6082 21.9508 15.4867 21.6926 15.2437C21.4343 14.9854 21.3052 14.674 21.3052 14.3094ZM24.5635 1.276C24.5635 0.926621 24.6927 0.630406 24.9509 0.387358C25.2091 0.129119 25.5129 0 25.8623 0C26.2117 0 26.5155 0.129119 26.7737 0.387358C27.032 0.630406 27.1611 0.926621 27.1611 1.276C27.1611 1.64057 27.032 1.95198 26.7737 2.21022C26.5155 2.45327 26.2117 2.57479 25.8623 2.57479C25.5129 2.57479 25.2091 2.45327 24.9509 2.21022C24.6927 1.95198 24.5635 1.64057 24.5635 1.276Z" fill="#4A66E8"/>
<path d="M0 14.3094C0 13.9601 0.129118 13.6638 0.387354 13.4208C0.64559 13.1626 0.949397 13.0334 1.29878 13.0334C1.64815 13.0334 1.95196 13.1626 2.2102 13.4208C2.46843 13.6638 2.59755 13.9601 2.59755 14.3094C2.59755 14.674 2.46843 14.9854 2.2102 15.2437C1.95196 15.4867 1.64815 15.6082 1.29878 15.6082C0.949397 15.6082 0.64559 15.4867 0.387354 15.2437C0.129118 14.9854 0 14.674 0 14.3094ZM3.25833 1.276C3.25833 0.926621 3.38745 0.630406 3.64568 0.387358C3.90392 0.129119 4.20773 0 4.55711 0C4.90648 0 5.21029 0.129119 5.46853 0.387358C5.72676 0.630406 5.85588 0.926621 5.85588 1.276C5.85588 1.64057 5.72676 1.95198 5.46853 2.21022C5.21029 2.45327 4.90648 2.57479 4.55711 2.57479C4.20773 2.57479 3.90392 2.45327 3.64568 2.21022C3.38745 1.95198 3.25833 1.64057 3.25833 1.276ZM6.51666 7.79272C6.51666 7.44334 6.64578 7.14713 6.90401 6.90408C7.16225 6.64584 7.46606 6.51672 7.81544 6.51672C8.16481 6.51672 8.46862 6.64584 8.72686 6.90408C8.98509 7.14713 9.11421 7.44334 9.11421 7.79272C9.11421 8.1573 8.98509 8.4687 8.72686 8.72694C8.46862 8.96999 8.16481 9.09151 7.81544 9.09151C7.46606 9.09151 7.16225 8.96999 6.90401 8.72694C6.64578 8.4687 6.51666 8.1573 6.51666 7.79272ZM6.51666 14.3094C6.51666 13.9601 6.64578 13.6638 6.90401 13.4208C7.16225 13.1626 7.46606 13.0334 7.81544 13.0334C8.16481 13.0334 8.46862 13.1626 8.72686 13.4208C8.98509 13.6638 9.11421 13.9601 9.11421 14.3094C9.11421 14.674 8.98509 14.9854 8.72686 15.2437C8.46862 15.4867 8.16481 15.6082 7.81544 15.6082C7.46606 15.6082 7.16225 15.4867 6.90401 15.2437C6.64578 14.9854 6.51666 14.674 6.51666 14.3094ZM9.77499 1.276C9.77499 0.926621 9.90411 0.630406 10.1623 0.387358C10.4206 0.129119 10.7244 0 11.0738 0C11.4231 0 11.727 0.129119 11.9852 0.387358C12.2434 0.630406 12.3725 0.926621 12.3725 1.276C12.3725 1.64057 12.2434 1.95198 11.9852 2.21022C11.727 2.45327 11.4231 2.57479 11.0738 2.57479C10.7244 2.57479 10.4206 2.45327 10.1623 2.21022C9.90411 1.95198 9.77499 1.64057 9.77499 1.276ZM9.77499 14.3094C9.77499 13.9601 9.90411 13.6638 10.1623 13.4208C10.4206 13.1626 10.7244 13.0334 11.0738 13.0334C11.4231 13.0334 11.727 13.1626 11.9852 13.4208C12.2434 13.6638 12.3725 13.9601 12.3725 14.3094C12.3725 14.674 12.2434 14.9854 11.9852 15.2437C11.727 15.4867 11.4231 15.6082 11.0738 15.6082C10.7244 15.6082 10.4206 15.4867 10.1623 15.2437C9.90411 14.9854 9.77499 14.674 9.77499 14.3094ZM13.0333 1.276C13.0333 0.926621 13.1624 0.630406 13.4207 0.387358C13.6789 0.129119 13.9827 0 14.3321 0C14.6815 0 14.9853 0.129119 15.2435 0.387358C15.5018 0.630406 15.6309 0.926621 15.6309 1.276C15.6309 1.64057 15.5018 1.95198 15.2435 2.21022C14.9853 2.45327 14.6815 2.57479 14.3321 2.57479C13.9827 2.57479 13.6789 2.45327 13.4207 2.21022C13.1624 1.95198 13.0333 1.64057 13.0333 1.276ZM13.0333 14.3094C13.0333 13.9601 13.1624 13.6638 13.4207 13.4208C13.6789 13.1626 13.9827 13.0334 14.3321 13.0334C14.6815 13.0334 14.9853 13.1626 15.2435 13.4208C15.5018 13.6638 15.6309 13.9601 15.6309 14.3094C15.6309 14.674 15.5018 14.9854 15.2435 15.2437C14.9853 15.4867 14.6815 15.6082 14.3321 15.6082C13.9827 15.6082 13.6789 15.4867 13.4207 15.2437C13.1624 14.9854 13.0333 14.674 13.0333 14.3094ZM9.77499 4.53436C9.77499 4.18498 9.90411 3.88877 10.1623 3.64572C10.4206 3.38748 10.7244 3.25836 11.0738 3.25836C11.4231 3.25836 11.727 3.38748 11.9852 3.64572C12.2434 3.88877 12.3725 4.18498 12.3725 4.53436C12.3725 4.89893 12.2434 5.21034 11.9852 5.46858C11.727 5.71163 11.4231 5.83315 11.0738 5.83315C10.7244 5.83315 10.4206 5.71163 10.1623 5.46858C9.90411 5.21034 9.77499 4.89893 9.77499 4.53436ZM3.25833 11.0511C3.25833 10.7017 3.38745 10.4055 3.64568 10.1624C3.90392 9.9042 4.20773 9.77508 4.55711 9.77508C4.90648 9.77508 5.21029 9.9042 5.46853 10.1624C5.72676 10.4055 5.85588 10.7017 5.85588 11.0511C5.85588 11.4157 5.72676 11.7271 5.46853 11.9853C5.21029 12.2283 4.90648 12.3499 4.55711 12.3499C4.20773 12.3499 3.90392 12.2283 3.64568 11.9853C3.38745 11.7271 3.25833 11.4157 3.25833 11.0511ZM3.25833 14.3094C3.25833 13.9601 3.38745 13.6638 3.64568 13.4208C3.90392 13.1626 4.20773 13.0334 4.55711 13.0334C4.90648 13.0334 5.21029 13.1626 5.46853 13.4208C5.72676 13.6638 5.85588 13.9601 5.85588 14.3094C5.85588 14.674 5.72676 14.9854 5.46853 15.2437C5.21029 15.4867 4.90648 15.6082 4.55711 15.6082C4.20773 15.6082 3.90392 15.4867 3.64568 15.2437C3.38745 14.9854 3.25833 14.674 3.25833 14.3094ZM0 1.276C0 0.926621 0.129118 0.630406 0.387354 0.387358C0.64559 0.129119 0.949397 0 1.29878 0C1.64815 0 1.95196 0.129119 2.2102 0.387358C2.46843 0.630406 2.59755 0.926621 2.59755 1.276C2.59755 1.64057 2.46843 1.95198 2.2102 2.21022C1.95196 2.45327 1.64815 2.57479 1.29878 2.57479C0.949397 2.57479 0.64559 2.45327 0.387354 2.21022C0.129118 1.95198 0 1.64057 0 1.276ZM6.51666 1.276C6.51666 0.926621 6.64578 0.630406 6.90401 0.387358C7.16225 0.129119 7.46606 0 7.81544 0C8.16481 0 8.46862 0.129119 8.72686 0.387358C8.98509 0.630406 9.11421 0.926621 9.11421 1.276C9.11421 1.64057 8.98509 1.95198 8.72686 2.21022C8.46862 2.45327 8.16481 2.57479 7.81544 2.57479C7.46606 2.57479 7.16225 2.45327 6.90401 2.21022C6.64578 1.95198 6.51666 1.64057 6.51666 1.276Z" fill="#4A66E8"/>
</svg>
